<?xml version="1.0" encoding="UTF-8" standalone="no"?>
<!-- Created with Inkscape (http://www.inkscape.org/) -->

<svg
   xmlns:dc="http://purl.org/dc/elements/1.1/"
   xmlns:cc="http://creativecommons.org/ns#"
   xmlns:rdf="http://www.w3.org/1999/02/22-rdf-syntax-ns#"
   xmlns:svg="http://www.w3.org/2000/svg"
   xmlns="http://www.w3.org/2000/svg"
   xmlns:sodipodi="http://sodipodi.sourceforge.net/DTD/sodipodi-0.dtd"
   xmlns:inkscape="http://www.inkscape.org/namespaces/inkscape"
   width="631.24939"
   height="128.68332"
   id="svg3881"
   version="1.1"
   inkscape:version="0.48.2 r9819"
   sodipodi:docname="logo2.svg"
   inkscape:export-filename="C:\inetpub\wwwroot\styles\single\headerback.png"
   inkscape:export-xdpi="72.559998"
   inkscape:export-ydpi="72.559998">
  <defs
     id="defs3883" />
  <sodipodi:namedview
     id="base"
     pagecolor="#ffffff"
     bordercolor="#666666"
     borderopacity="1.0"
     inkscape:pageopacity="0.0"
     inkscape:pageshadow="2"
     inkscape:zoom="1.4"
     inkscape:cx="381.44409"
     inkscape:cy="26.334063"
     inkscape:document-units="px"
     inkscape:current-layer="layer1"
     showgrid="false"
     fit-margin-top="0"
     fit-margin-left="0"
     fit-margin-right="0"
     fit-margin-bottom="0"
     inkscape:window-width="1680"
     inkscape:window-height="988"
     inkscape:window-x="-8"
     inkscape:window-y="-8"
     inkscape:window-maximized="1" />
  <metadata
     id="metadata3886">
    <rdf:RDF>
      <cc:Work
         rdf:about="">
        <dc:format>image/svg+xml</dc:format>
        <dc:type
           rdf:resource="http://purl.org/dc/dcmitype/StillImage" />
        <dc:title></dc:title>
      </cc:Work>
    </rdf:RDF>
  </metadata>
  <g
     inkscape:label="Layer 1"
     inkscape:groupmode="layer"
     id="layer1"
     transform="translate(-16.518176,-22.304966)">
    <text
       xml:space="preserve"
       style="font-size:20.78197098px;font-style:normal;font-variant:normal;font-weight:normal;font-stretch:normal;line-height:125%;letter-spacing:0px;word-spacing:0px;fill:#000000;fill-opacity:1;stroke:none;font-family:Respective Swashes;-inkscape-font-specification:Respective Swashes"
       x="137.21255"
       y="84.664467"
       id="text3030"
       sodipodi:linespacing="125%"
       inkscape:export-filename="C:\inetpub\wwwroot\styles\single\headerback.png"
       inkscape:export-xdpi="72.559998"
       inkscape:export-ydpi="72.559998"><tspan
         sodipodi:role="line"
         id="tspan3032"
         x="137.21255"
         y="84.664467"
         style="font-size:74.81509399px;font-style:normal;font-variant:normal;font-weight:200;font-stretch:normal;fill:#000000;fill-opacity:1;font-family:Raleway;-inkscape-font-specification:Raleway Ultra-Light"><tspan
           style="fill:#cccccc;fill-opacity:1"
           id="tspan3862">erikmoberg</tspan><tspan
           style="fill:#ffa500;fill-opacity:1"
           id="tspan3860">.net</tspan></tspan></text>
    <path
       style="fill:#cccccc;fill-opacity:1"
       d="m 77.832743,135.83965 c -0.525384,-0.0833 -1.878744,-0.45864 -2.249432,-0.62382 -0.157495,-0.0702 -0.507199,-0.21432 -0.777134,-0.32034 -0.478396,-0.18788 -0.77972,-0.34044 -2.664291,-1.34879 -1.348471,-0.72151 -1.611591,-0.86806 -2.407888,-1.34112 -0.398854,-0.23696 -0.739689,-0.43081 -0.757422,-0.43081 -0.119449,0 -1.711188,-1.1786 -2.684011,-1.9874 -0.363908,-0.30255 -1.089729,-0.85176 -1.612941,-1.22046 -0.523203,-0.3687 -1.192725,-0.84682 -1.487817,-1.0625 -0.295082,-0.21569 -0.605931,-0.43947 -0.69076,-0.49732 -0.08483,-0.0578 -0.253551,-0.19142 -0.374942,-0.29686 -0.121391,-0.10543 -0.239542,-0.19219 -0.262563,-0.19281 -0.02304,-6.7e-4 -0.117667,-0.0677 -0.210334,-0.14909 -0.09267,-0.0814 -0.354737,-0.27858 -0.582362,-0.4382 -0.638928,-0.44805 -0.951824,-0.67669 -1.528069,-1.11668 l -0.531421,-0.40576 -0.410974,0.13659 c -0.557038,0.18514 -1.107499,0.24315 -1.397903,0.14732 -0.19539,-0.0644 -0.275337,-0.15733 -0.449205,-0.52163 -0.248935,-0.5216 -0.258327,-0.67903 -0.0722,-1.2087 0.07662,-0.21804 0.121302,-0.41445 0.09926,-0.43645 -0.02207,-0.022 -0.455657,-0.46879 -0.963572,-0.99284 -0.507914,-0.52406 -1.128383,-1.12003 -1.378809,-1.32438 -0.250444,-0.20435 -0.772368,-0.69054 -1.159835,-1.08045 -0.387486,-0.38989 -0.868265,-0.81932 -1.068392,-0.95429 -0.227881,-0.15367 -0.5097,-0.44849 -0.754024,-0.78877 -0.214579,-0.29885 -0.412145,-0.54342 -0.439041,-0.54347 -0.02689,-5e-5 -0.03842,0.16797 -0.02558,0.37338 0.02007,0.32137 -0.0027,0.40451 -0.163987,0.59606 -0.318832,0.3789 -0.682971,0.25443 -1.401803,-0.47918 -0.477573,-0.48738 -0.79778,-0.70673 -1.157283,-0.79277 -0.143515,-0.0344 -0.19785,-0.004 -0.296642,0.16869 -0.07212,0.12566 -0.250071,0.26785 -0.440827,0.35224 -0.306231,0.13545 -0.334739,0.13655 -0.668055,0.0259 -0.282227,-0.0937 -0.44932,-0.22616 -0.88215,-0.69907 -0.335669,-0.36679 -0.60231,-0.59647 -0.718005,-0.61851 -0.101222,-0.0193 -0.31024,-0.0821 -0.46449,-0.13948 -0.154248,-0.0575 -0.706388,-0.13662 -1.226974,-0.17597 -0.943201,-0.0713 -1.142541,-0.0693 -1.656943,0.017 -0.14914,0.025 -0.460466,0.0547 -0.691842,0.066 -0.231371,0.0113 -0.483777,0.0549 -0.560904,0.0968 -0.07712,0.0418 -0.353189,0.16227 -0.613485,0.26753 -0.260294,0.10526 -0.473264,0.21819 -0.473264,0.25097 0,0.0328 -0.03944,0.0603 -0.08764,0.0612 -0.0482,8.8e-4 -0.166519,0.0633 -0.262923,0.13867 -0.32172,0.25165 -1.490622,0.16391 -2.203426,-0.1654 -1.427259,-0.65937 -1.439256,-2.4323 -0.02962,-4.37908 0.472425,-0.65247 1.736281,-1.85524 2.416502,-2.29972 0.342564,-0.22385 0.638617,-0.424 0.657899,-0.44479 0.01927,-0.0208 0.322651,-0.18769 0.674157,-0.37086 0.975362,-0.5083 2.026009,-0.87335 3.167097,-1.10042 2.004604,-0.39888 2.651986,-0.58541 3.508535,-1.01089 0.969232,-0.48146 1.094895,-0.55726 1.497736,-0.90353 0.213089,-0.18317 0.407853,-0.33303 0.432808,-0.33303 0.05751,0 0.573649,-0.25327 1.18305,-0.58054 0.589061,-0.31633 1.654673,-0.66181 2.33175,-0.75598 0.613125,-0.0853 1.407021,-0.003 2.15259,0.22368 0.56913,0.17285 1.064624,0.56227 1.129752,0.88787 0.02127,0.1065 0.104954,0.27784 0.185917,0.38075 l 0.147193,0.18713 0.266818,-0.29415 c 0.146752,-0.16178 0.394565,-0.46769 0.550691,-0.67977 0.378853,-0.51465 0.600776,-0.71319 1.130696,-1.01153 0.449064,-0.25284 0.997292,-0.34261 1.09793,-0.17977 0.07194,0.11636 0.965505,0.81089 1.197986,0.9311 0.118717,0.0614 0.393267,0.25616 0.610133,0.43281 0.430968,0.35106 0.546057,0.59964 0.492458,1.06367 -0.04696,0.40687 0.06726,0.61529 0.517491,0.94394 0.223707,0.16329 0.879997,0.75781 1.458431,1.32116 1.857745,1.80928 3.429359,3.24796 3.457119,3.16468 0.01483,-0.0446 -0.06832,-0.32427 -0.184761,-0.62161 -0.263428,-0.67251 -0.293026,-0.77238 -0.639872,-2.15891 -0.384068,-1.53538 -0.542277,-2.51508 -0.669883,-4.14814 -0.110789,-1.41804 -0.108089,-1.49878 0.114118,-3.41834 0.06249,-0.53994 0.204207,-1.263536 0.542384,-2.76946 0.03893,-0.173524 0.136071,-0.535685 0.215771,-0.804786 0.07971,-0.269092 0.144924,-0.622184 0.144924,-0.784627 0,-0.162446 0.03177,-0.314997 0.07062,-0.338998 0.03884,-0.02401 0.118813,-0.136856 0.177726,-0.250779 0.09108,-0.17612 0.09525,-0.298817 0.0279,-0.81938 -0.04352,-0.33673 -0.123527,-0.682127 -0.177726,-0.76753 -0.0542,-0.08545 -0.09854,-0.228253 -0.09854,-0.317434 0,-0.192343 0.181831,-0.473805 0.306091,-0.473805 0.04828,0 0.146328,-0.04281 0.217871,-0.09512 0.113279,-0.0828 0.133061,-0.216432 0.153019,-1.034162 0.02966,-1.214925 0.117092,-1.720162 0.420305,-2.428938 l 0.247443,-0.578434 -0.269219,-0.613487 -0.269211,-0.613487 0,-1.097674 0,-1.097665 0.21743,-0.268743 c 0.139134,-0.171962 0.33612,-0.311201 0.54701,-0.386656 0.484488,-0.173339 0.532649,-0.233602 0.532649,-0.666494 0,-0.351612 -0.02287,-0.404725 -0.306277,-0.710074 -0.168457,-0.181522 -0.355892,-0.427393 -0.416517,-0.546383 -0.162022,-0.317971 -0.325458,-1.397974 -0.290864,-1.922095 0.07247,-1.097736 0.158359,-2.012547 0.205531,-2.18886 0.05552,-0.207579 -0.110806,-0.545747 -0.391316,-0.795556 -0.08377,-0.07459 -0.258309,-0.355575 -0.387891,-0.624424 -0.189528,-0.393232 -0.235597,-0.573844 -0.235597,-0.92369 0,-0.317399 -0.05552,-0.57366 -0.205523,-0.948505 -0.180019,-0.449806 -0.544721,-1.823479 -0.663314,-2.49828 -0.02242,-0.127526 -0.155084,-0.490357 -0.294836,-0.806298 -0.139743,-0.315933 -0.405493,-1.016138 -0.590554,-1.556007 -0.488635,-1.425532 -0.600096,-1.683982 -0.901005,-2.089316 -0.148879,-0.200553 -0.424798,-0.648593 -0.613152,-0.99565 -0.422034,-0.777663 -0.410903,-0.759161 -0.808143,-1.343872 -0.19772,-0.291023 -0.430226,-0.775015 -0.592346,-1.233047 l -0.266872,-0.75398 -0.424294,-0.197402 -0.424295,-0.19741 -0.502592,0.232207 c -0.628943,0.29059 -1.257471,0.441225 -1.846189,0.442496 -0.476023,8.83e-4 -1.325292,0.146081 -2.9798,0.508947 -1.28473,0.281763 -2.011806,0.288807 -2.79593,0.0271 -0.789151,-0.263402 -1.097171,-0.243754 -2.215572,0.141402 -1.162576,0.400373 -1.656429,0.43411 -2.210126,0.151015 -0.19281,-0.09858 -0.595817,-0.280987 -0.895579,-0.405353 -0.616208,-0.255642 -0.660947,-0.244459 -0.900461,0.225022 -0.203846,0.399579 -0.599268,0.806705 -0.870424,0.896186 -0.317014,0.104628 -1.070398,0.03346 -1.654466,-0.156214 l -0.464723,-0.150953 -0.4004,0.153231 c -0.242594,0.09284 -0.557981,0.153221 -0.800221,0.153221 -0.682646,0 -3.103948,-0.756452 -3.939363,-1.230725 -0.285754,-0.162227 -0.643798,-0.293097 -0.976921,-0.357077 -0.672359,-0.129141 -1.029654,-0.221588 -2.489006,-0.643994 -3.759572,-1.088167 -4.8646,-1.419926 -5.784316,-1.7366 -0.404901,-0.139416 -0.92549,-0.311617 -1.156861,-0.382676 -0.656012,-0.201461 -1.982395,-0.599601 -2.529269,-0.759196 -0.272795,-0.07962 -0.604141,-0.218146 -0.736329,-0.307847 -0.132193,-0.08971 -0.429583,-0.236258 -0.660872,-0.325669 -0.881327,-0.340702 -1.10979,-0.466012 -1.340007,-0.734958 -0.130562,-0.152533 -0.237386,-0.315102 -0.237386,-0.361251 0,-0.04616 -0.165641,-0.157714 -0.368094,-0.247919 -0.32899,-0.146575 -0.483526,-0.165359 -1.454843,-0.176808 -0.823378,-0.0097 -1.222686,-0.04705 -1.647651,-0.154034 -0.308499,-0.07768 -0.697549,-0.162949 -0.864556,-0.18951 -0.185212,-0.02948 -0.395115,-0.128594 -0.538147,-0.254178 -0.206868,-0.181636 -0.810132,-1.114992 -1.103911,-1.707965 -0.201255,-0.406208 -0.413065,-1.260668 -0.390494,-1.575259 0.01927,-0.268354 0.05763,-0.336818 0.267872,-0.478007 0.206413,-0.138622 0.247212,-0.209072 0.256811,-0.443477 0.01303,-0.317609 0.09855,-0.445683 0.40272,-0.602974 0.117699,-0.06082 0.345544,-0.246012 0.506321,-0.411434 0.178276,-0.183436 0.399061,-0.329517 0.565917,-0.374448 0.261042,-0.07027 0.272268,-0.08501 0.244764,-0.320628 -0.01797,-0.153884 0.01456,-0.313179 0.08628,-0.422644 0.110587,-0.168775 0.108661,-0.178114 -0.04919,-0.23813 -0.254713,-0.09684 -0.611358,-0.54377 -0.611358,-0.766135 0,-0.32679 0.138305,-0.436035 0.633701,-0.500535 0.51032,-0.06647 0.891634,-0.19177 1.275202,-0.419131 0.317351,-0.188116 0.426897,-0.169896 1.451125,0.241378 0.40787,0.16378 0.962436,0.36992 1.232368,0.458103 0.618956,0.202178 0.884334,0.464035 1.012739,0.999278 0.05118,0.213309 0.07598,0.477029 0.05515,0.586026 -0.06998,0.366124 0.39034,1.077875 0.697127,1.077875 0.291866,0 1.435161,0.218004 1.906047,0.363441 0.252797,0.07812 0.729159,0.171069 1.058578,0.206642 1.26265,0.136328 1.658073,0.191003 1.875752,0.259334 0.123813,0.03893 0.32031,0.0557 0.436655,0.03734 0.130761,-0.02057 0.339305,0.02507 0.546122,0.119609 0.29557,0.135108 0.469483,0.154572 1.49145,0.166886 l 1.156862,0.01395 0.8063,0.28893 c 0.574035,0.205707 0.895418,0.365797 1.115685,0.55574 0.872828,0.752682 0.902676,0.766868 1.734595,0.824491 0.418293,0.02896 0.870961,0.04696 1.005929,0.03999 0.820623,-0.04246 2.038974,-0.0035 2.175198,0.06929 0.202116,0.108168 1.16227,0.137721 1.451801,0.04466 0.161797,-0.05199 0.322071,-0.04908 0.560903,0.01006 0.33872,0.08394 0.522166,0.07503 2.709357,-0.131887 0.961493,-0.09095 1.496447,-0.0035 2.266519,0.371332 0.425808,0.207164 0.446759,0.210095 1.02156,0.143097 0.418,-0.04872 0.749332,-0.141773 1.151638,-0.323419 0.310648,-0.140254 0.618655,-0.255016 0.684457,-0.255016 0.06581,0 0.34084,-0.09708 0.611174,-0.215735 0.429793,-0.188637 0.567754,-0.215109 1.098502,-0.210819 1.537286,0.01245 3.363916,-0.05411 3.621836,-0.131966 0.154245,-0.04652 0.45398,-0.125072 0.666071,-0.174495 0.21209,-0.04943 0.501523,-0.158827 0.643181,-0.243091 0.174116,-0.103586 0.453901,-0.17348 0.863631,-0.215753 0.497772,-0.05138 0.689798,-0.108733 1.074592,-0.321079 0.257682,-0.142206 0.720913,-0.350102 1.029413,-0.461987 0.3085,-0.111892 0.771502,-0.328547 1.028893,-0.48146 0.2574,-0.152912 0.481601,-0.278019 0.49823,-0.278019 0.0166,0 0.326624,-0.170391 0.688872,-0.378659 0.610839,-0.351171 0.691705,-0.424656 1.114366,-1.012518 0.250656,-0.348629 0.640772,-0.85943 0.866933,-1.135118 l 0.411195,-0.501242 0.01121,-0.537035 c 0.01112,-0.529974 0.01633,-0.54438 0.398008,-1.095265 0.44307,-0.639474 0.863118,-0.918958 1.364297,-0.907748 0.492547,0.01103 1.212807,0.528234 1.615351,1.159984 0.111735,0.175352 0.256747,0.288031 0.464592,0.361022 0.166189,0.05835 0.420092,0.156885 0.564222,0.218931 l 0.262061,0.112829 0.202442,-0.279467 c 0.186041,-0.256809 0.197392,-0.306497 0.140104,-0.613117 -0.04705,-0.251751 -0.03637,-0.398643 0.04361,-0.598375 l 0.105917,-0.264718 -0.253728,0.106015 c -0.139548,0.05835 -0.367703,0.106013 -0.507013,0.106013 -0.223892,0 -0.307891,-0.05853 -0.723968,-0.504506 -0.258874,-0.277482 -0.527537,-0.616647 -0.597033,-0.753716 -0.162915,-0.321326 -0.455199,-0.762763 -0.652433,-0.985392 -0.237142,-0.267666 -0.599902,-0.853153 -0.906822,-1.463604 -0.220512,-0.43855 -0.349529,-0.602974 -0.632951,-0.80659 -0.338027,-0.242853 -0.766382,-0.805495 -0.873871,-1.147812 -0.02727,-0.08677 -0.07106,-0.160169 -0.09738,-0.163117 -0.230026,-0.02578 -0.345538,-0.07892 -0.448958,-0.20668 -0.08333,-0.102941 -0.164917,-0.135213 -0.263013,-0.104088 -0.170329,0.05402 -0.174936,0.02189 -0.03557,-0.247646 0.118549,-0.22926 0.08748,-0.450645 -0.117418,-0.837442 -0.07124,-0.134401 -0.129892,-0.355257 -0.130431,-0.490789 -0.0017,-0.348911 -0.06982,-0.561936 -0.180745,-0.561936 -0.06735,0 -0.0835,-0.05861 -0.05517,-0.200253 0.02896,-0.144792 0.009,-0.212144 -0.07185,-0.243197 -0.144827,-0.05561 -0.14278,-0.216804 0.0044,-0.364209 0.0932,-0.0932 0.09812,-0.127923 0.02454,-0.173374 -0.06868,-0.04246 -0.07768,-0.142779 -0.03549,-0.396789 0.03107,-0.186968 0.06541,-0.529258 0.07636,-0.760627 0.01094,-0.231369 0.02454,-0.499555 0.03036,-0.595965 0.0062,-0.0964 -0.07115,-0.389683 -0.171008,-0.651727 -0.145066,-0.380803 -0.181425,-0.598974 -0.181116,-1.086754 6.71e-4,-0.642264 0.09433,-1.117968 0.244654,-1.239085 0.137562,-0.110834 0.183242,-0.726334 0.05588,-0.752533 -0.08024,-0.01651 -0.06611,-0.07345 0.06665,-0.268619 0.09265,-0.136238 0.158544,-0.278214 0.146452,-0.315509 -0.01209,-0.03734 0.05658,-0.104302 0.152674,-0.14887 0.144245,-0.06691 0.174681,-0.06285 0.174681,0.02339 0,0.132036 0.168342,0.08183 0.195538,-0.05835 0.01121,-0.05755 -0.06452,-0.143017 -0.168721,-0.190489 -0.163683,-0.07459 -0.234776,-0.06347 -0.530698,0.08297 -0.242314,0.119926 -0.314432,0.136238 -0.247972,0.05606 0.179765,-0.216786 0.260304,-0.491504 0.194692,-0.664093 -0.07556,-0.198779 -0.199432,-0.253595 -0.587915,-0.26018 l -0.292241,-0.0053 0.315509,-0.149311 0.315509,-0.149303 -0.350571,-0.04016 -0.350561,-0.04016 0.245395,-0.05906 c 0.33673,-0.08103 0.444747,-0.17476 0.342847,-0.297545 -0.04378,-0.0527 -0.121162,-0.09586 -0.172006,-0.09586 -0.05085,0 -0.110799,-0.02966 -0.13322,-0.06594 -0.02428,-0.03928 0.06232,-0.04926 0.21428,-0.02454 0.24543,0.03981 0.251935,0.03558 0.17242,-0.113005 -0.04546,-0.08492 -0.06982,-0.20794 -0.0542,-0.273403 0.0218,-0.09106 0.04713,-0.07371 0.107867,0.07379 0.04369,0.10605 0.111735,0.192811 0.151254,0.192811 0.09058,0 0.09042,-0.04466 -6.72e-4,-0.21495 -0.03989,-0.07459 -0.0474,-0.135619 -0.0166,-0.135619 0.03072,0 0.08712,0.07097 0.12517,0.157758 0.05022,0.114462 0.136547,0.162226 0.314608,0.174046 0.398467,0.02648 0.577049,-0.04555 0.852067,-0.343412 0.18794,-0.203572 0.249314,-0.240955 0.221607,-0.134976 -0.05041,0.192793 0.09483,0.19056 0.156072,-0.0027 0.02842,-0.08952 0.01271,-0.170337 -0.03928,-0.202495 -0.134455,-0.08306 -0.01827,-0.199353 0.249341,-0.24957 0.194285,-0.03646 0.242932,-0.07812 0.242932,-0.208276 0,-0.170771 0.320134,-0.452701 0.51404,-0.452701 0.0587,0 0.203943,-0.117886 0.322694,-0.261955 0.189298,-0.229655 0.232763,-0.25145 0.352416,-0.176719 0.08597,0.05367 0.152206,0.05985 0.178944,0.01659 0.02331,-0.03778 0.0079,-0.06868 -0.03461,-0.06868 -0.04978,0 -0.04528,-0.03399 0.01262,-0.096 0.067,-0.07168 0.129778,-0.07777 0.247929,-0.02392 0.124533,0.05676 0.223865,0.03831 0.466409,-0.08641 0.183993,-0.09463 0.364217,-0.140705 0.44728,-0.114347 0.103578,0.03283 0.149073,0.0062 0.17815,-0.105158 l 0.03901,-0.149302 0.158157,0.147333 c 0.159992,0.149074 0.386708,0.20623 0.307122,0.07741 -0.0489,-0.07909 0.29654,0.03708 0.423536,0.142497 0.05244,0.04352 0.116915,-0.01774 0.198107,-0.18801 0.150177,-0.314917 0.204384,-0.277905 0.107392,0.07335 -0.04034,0.146054 -0.05561,0.283255 -0.03399,0.304881 0.02163,0.02162 0.213238,0.03363 0.425787,0.02666 0.353801,-0.01157 0.512451,0.07009 0.298826,0.15383 -0.0482,0.01889 0.01553,0.05711 0.141684,0.085 0.126123,0.0279 0.246304,0.07812 0.267057,0.111725 0.05261,0.08509 0.380027,0.0768 0.380027,-0.0096 0,-0.04193 0.05711,-0.03505 0.140227,0.01686 0.07715,0.0482 0.14022,0.123007 0.14022,0.166313 0,0.130413 0.339801,0.428973 0.754766,0.663158 0.557778,0.314794 1.240646,0.838676 1.39333,1.068941 0.114294,0.172377 0.167733,0.194162 0.428559,0.174777 0.204295,-0.01518 0.297977,0.0053 0.297977,0.06603 0,0.04846 0.06515,0.08818 0.144828,0.08818 0.186879,0 0.342608,0.08544 0.608667,0.333984 0.118213,0.110427 0.338327,0.23775 0.489139,0.282936 0.236921,0.07097 0.75925,0.415317 1.058375,0.697698 0.05111,0.0482 0.161582,0.08978 0.245589,0.09239 l 0.152755,0.0044 -0.157759,0.07609 c -0.209134,0.100868 -0.200809,0.129847 0.09521,0.331477 0.651277,0.443609 1.626977,1.635936 1.859678,2.272568 0.07203,0.197076 0.130969,0.477284 0.130969,0.622694 0,0.196731 0.04625,0.304572 0.180709,0.421497 0.09938,0.08642 0.419573,0.551582 0.711522,1.033704 0.291948,0.482112 0.648213,1.065878 0.791698,1.297255 0.143476,0.231369 0.348726,0.673909 0.45609,0.983407 0.223124,0.643217 0.206255,0.952167 -0.06991,1.280387 -0.261592,0.310875 -0.27862,0.504764 -0.08509,0.968939 0.278621,0.668277 0.407515,1.375765 0.390399,2.142809 -0.01536,0.689639 -0.01527,0.690159 0.30338,1.338117 0.175325,0.356502 0.366945,0.758623 0.425822,0.89359 0.05888,0.134967 0.1847,0.421311 0.279626,0.636315 0.09492,0.215011 0.19554,0.605269 0.223601,0.86725 l 0.05102,0.47633 0.287554,-0.03857 c 0.322738,-0.04325 0.494311,-0.214925 0.619887,-0.620108 0.0722,-0.232922 0.0557,-0.311572 -0.180392,-0.861274 -0.526293,-1.225333 -0.38151,-1.96571 0.468634,-2.39651 0.194391,-0.0985 0.544193,-0.309304 0.777327,-0.468439 0.360872,-0.24634 0.487091,-0.292947 0.849093,-0.313585 0.348637,-0.01986 0.48198,0.0071 0.74051,0.14804 0.375745,0.20531 0.659926,0.667624 0.594235,0.966714 -0.03716,0.169005 -0.0173,0.193756 0.190587,0.237989 0.496765,0.105723 2.079235,1.011875 2.817883,1.613568 0.28163,0.229418 0.485785,0.334231 0.747695,0.383911 0.198152,0.0376 0.513537,0.122759 0.700858,0.18929 0.353892,0.12568 0.464337,0.102757 0.393552,-0.08174 -0.02701,-0.07044 -0.13411,-0.109069 -0.30664,-0.110701 l -0.265124,-0.0027 0.195195,-0.159771 c 0.242353,-0.198363 0.783113,-0.396895 1.079803,-0.396436 0.12282,0 0.30436,-0.03045 0.403436,-0.06814 0.180117,-0.0685 0.507711,0.01969 0.610282,0.164238 0.0248,0.03495 0.0936,0.0044 0.152887,-0.06868 0.487876,-0.598543 0.412863,-0.555034 1.253375,-0.726951 0.46137,-0.09437 0.828853,-0.207271 0.879892,-0.270341 0.04819,-0.05958 0.0881,-0.220573 0.08871,-0.357809 6.71e-4,-0.137234 0.02727,-0.290792 0.05923,-0.341231 0.0745,-0.117489 0.393876,-0.04317 0.661947,0.154149 0.168511,0.124004 0.2057,0.12983 0.261849,0.04104 0.03602,-0.05694 0.06594,-0.232683 0.06656,-0.390592 8.82e-4,-0.300565 0.156806,-0.519187 0.36969,-0.519187 0.117975,0 0.470752,-0.328634 0.733348,-0.683159 0.08867,-0.119706 0.246799,-0.22813 0.368106,-0.252386 0.163892,-0.03275 0.212643,-0.08006 0.212643,-0.206167 0,-0.09 0.04127,-0.220141 0.09183,-0.289187 0.07795,-0.10657 0.130912,-0.114762 0.350478,-0.05411 0.246359,0.06806 0.256825,0.06408 0.21991,-0.08298 -0.06521,-0.259898 0.473528,-1.327128 0.900316,-1.783438 0.205547,-0.219779 0.481801,-0.541572 0.613882,-0.715105 0.13207,-0.173524 0.330492,-0.407753 0.440912,-0.520493 0.473247,-0.483181 0.730157,-0.92031 0.873117,-1.485655 0.0974,-0.38534 0.31466,-0.883112 0.68721,-1.574834 0.2996,-0.556278 0.87832,-1.678562 1.28605,-2.493962 0.40772,-0.815408 0.7928,-1.541071 0.85572,-1.612597 0.0629,-0.0715 0.13623,-0.201665 0.16292,-0.289196 0.0266,-0.08756 0.16276,-0.308393 0.30237,-0.490797 0.13963,-0.182396 0.39759,-0.555961 0.57327,-0.830141 0.17567,-0.274181 0.52447,-0.794736 0.77513,-1.156781 0.25066,-0.362055 0.52697,-0.780294 0.61407,-0.929437 0.087,-0.149135 0.25193,-0.389348 0.36635,-0.533814 0.19531,-0.246613 0.20552,-0.290042 0.1669,-0.710506 -0.0289,-0.315915 -0.007,-0.565291 0.0755,-0.846541 0.0642,-0.219284 0.14234,-0.794665 0.17373,-1.278622 0.0371,-0.57125 0.0911,-0.920893 0.15399,-0.99671 0.0533,-0.06426 0.27049,-0.244856 0.48262,-0.401397 0.51725,-0.381677 1.49284,-1.357192 1.6377,-1.637586 0.18077,-0.349891 0.35951,-0.412696 0.57141,-0.200792 0.25004,0.25003 0.24696,0.954428 -0.007,1.65917 -0.14303,0.396462 -0.16641,0.539135 -0.10905,0.66502 0.0657,0.144041 0.12027,0.16 0.53976,0.157582 0.36162,-0.0017 0.51,0.0293 0.65878,0.139284 0.13079,0.0967 0.29477,0.140422 0.51418,0.137103 0.38217,-0.0062 0.6262,0.134402 0.74867,0.430077 0.0835,0.201497 0.105,0.211127 0.38587,0.172623 0.39158,-0.05367 0.58049,0.05605 0.7479,0.434552 0.11463,0.25913 0.13769,0.490181 0.14815,1.483906 0.0123,1.171567 0.0115,1.178655 -0.18697,1.542156 -0.10965,0.200854 -0.38454,0.543039 -0.61083,0.760407 -0.22631,0.217377 -0.42368,0.463205 -0.4386,0.546286 -0.0149,0.08306 -0.0616,0.340366 -0.10373,0.571744 -0.0421,0.231368 -0.18746,0.64153 -0.32297,0.911465 -0.1355,0.269934 -0.33781,0.743193 -0.44955,1.051693 -0.44531,1.229287 -0.83861,2.210716 -0.97447,2.431651 -0.09,0.146345 -0.12975,0.301288 -0.10715,0.417718 0.0213,0.109448 -0.0264,0.324354 -0.11659,0.525852 -0.26092,0.582927 -0.83329,2.152651 -1.01904,2.794711 -0.11155,0.385579 -0.32229,0.880959 -1.31234,3.084966 -0.19054,0.424189 -0.50422,1.179476 -0.69704,1.678422 -0.44493,1.151316 -1.4474,3.162318 -1.87095,3.753208 -0.17882,0.249491 -0.38993,0.558582 -0.46913,0.686876 -0.29038,0.470479 -0.89714,1.007902 -1.4551,1.288844 -0.38227,0.192475 -0.74181,0.457493 -1.19184,0.878522 -0.35445,0.331592 -0.75491,0.684749 -0.88991,0.784796 -0.13502,0.100056 -0.38746,0.297457 -0.561,0.438674 -0.43038,0.350243 -1.155078,0.850258 -4.101595,2.83002 -3.067233,2.060875 -3.955077,2.67175 -4.130914,2.842291 -0.120544,0.116898 -0.137951,0.267092 -0.167945,1.448835 -0.03328,1.311451 0.076,4.250865 0.202777,5.455083 0.03654,0.347057 0.09871,0.962302 0.138145,1.367203 0.07998,0.820784 0.305525,2.215148 0.453716,2.804509 0.06532,0.259978 0.107082,0.991034 0.128029,2.243615 0.02419,1.443046 0.05746,1.957289 0.149311,2.302616 0.07927,0.29797 0.103075,0.554946 0.0722,0.779112 l -0.04599,0.334487 0.380362,0.214667 c 0.209204,0.118072 0.519187,0.380733 0.688853,0.583704 0.169675,0.202972 0.534317,0.59187 0.810325,0.864214 0.276015,0.272353 0.549551,0.589831 0.607864,0.705519 0.05835,0.11568 0.25054,0.350994 0.427163,0.522912 0.176622,0.171917 0.321131,0.353333 0.321131,0.403153 0,0.107189 -0.182845,0.121656 -0.246012,0.01942 -0.132787,-0.214844 -1.650916,-0.682736 -1.928944,-0.594491 -0.250798,0.07962 -0.115602,0.711468 0.230635,1.077874 0.267454,0.283044 0.430165,0.53972 0.747086,1.178478 0.321847,0.648708 0.411266,1.133371 0.346801,1.879848 -0.07389,0.855811 -0.06382,3.949992 0.01483,4.557336 0.03495,0.269934 0.111134,0.810439 0.169288,1.20112 0.05817,0.390681 0.126237,1.138217 0.151315,1.66119 0.07062,1.47228 0.156347,1.422257 -2.660557,1.552298 -0.701538,0.0324 -0.779472,0.05058 -1.069224,0.249959 -0.171882,0.118257 -0.312516,0.244971 -0.312516,0.281569 0,0.03664 -0.105202,0.184938 -0.233787,0.329655 -0.128585,0.144722 -0.355788,0.491328 -0.504887,0.77024 -0.233276,0.436335 -0.321132,0.533292 -0.629597,0.694803 l -0.358509,0.1877 -0.181954,0.672391 c -0.100073,0.369823 -0.286043,1.158449 -0.413287,1.752516 l -0.231315,1.080126 0.154863,0.102818 c 0.115035,0.07636 0.154855,0.172113 0.154855,0.372259 0,0.19768 0.03734,0.289417 0.140228,0.344479 0.07715,0.04127 0.140229,0.146607 0.140229,0.234063 0,0.13571 0.0745,0.182852 0.508314,0.321597 0.279573,0.08944 0.592654,0.205613 0.695721,0.258204 0.263684,0.134532 0.479976,0.750348 0.52901,1.506135 0.05482,0.844549 -0.01527,1.231479 -0.26891,1.485129 -0.18717,0.18717 -0.235932,0.20215 -0.519257,0.15966 -0.355479,-0.0533 -0.360642,-0.0105 -0.05508,0.45687 0.147264,0.22528 0.289451,0.34901 1.025071,0.8921 0.119547,0.0883 0.33236,0.34067 0.472924,0.56091 0.155552,0.24373 0.353686,0.45169 0.506298,0.53141 0.137908,0.072 0.426811,0.33026 0.642,0.57386 0.215188,0.2436 0.462031,0.4649 0.548519,0.49181 0.08651,0.0269 0.272458,0.14729 0.41326,0.26751 0.140794,0.1202 0.336959,0.27446 0.435903,0.34278 0.09894,0.0684 0.362364,0.37448 0.585364,0.68033 0.728248,0.99883 1.780497,2.30448 1.943029,2.41099 0.08752,0.0573 0.311111,0.35111 0.496941,0.6529 0.185839,0.30176 0.509734,0.80099 0.719791,1.10938 0.224545,0.32967 0.468586,0.80634 0.592297,1.15686 0.333299,0.94429 0.612972,1.47551 2.823961,5.36383 0.34079,0.59935 2.14173,4.25388 2.52223,5.11824 0.22069,0.50131 0.45761,1.03767 0.52652,1.19191 0.28666,0.64173 0.71689,2.08056 0.81765,2.73441 0.12671,0.82231 0.0905,2.06513 -0.0807,2.76632 -0.13795,0.56517 -0.75568,1.84972 -1.04671,2.17665 -0.12015,0.13496 -0.40458,0.52514 -0.63206,0.86707 -0.46495,0.69883 -0.73212,0.92432 -1.5618,1.31804 -0.97039,0.46049 -1.4762,0.56021 -3.034757,0.59833 -1.268135,0.0311 -1.432371,0.0203 -2.266613,-0.14798 -0.932553,-0.18812 -1.488249,-0.37864 -2.325777,-0.79738 -1.056099,-0.528 -3.481059,-1.51009 -4.276888,-1.73209 -0.930526,-0.25956 -2.652306,-0.82214 -3.640311,-1.18946 -0.575373,-0.21389 -1.069604,-0.38891 -1.098293,-0.38891 -0.02869,0 -0.0723,0.24452 -0.09686,0.54338 -0.160672,1.95386 -0.569943,3.2471 -1.370557,4.33086 -0.503906,0.68211 -1.365251,1.31303 -2.212438,1.62053 -1.063345,0.38597 -3.327942,0.61485 -4.400494,0.44475 z M 47.146635,116.35791 c 0,-0.0562 -0.41774,-0.28843 -0.518912,-0.28843 -0.112833,0 -0.02024,0.14754 0.150818,0.24034 0.220127,0.11943 0.368094,0.13876 0.368094,0.0481 z m 18.59734,-66.190986 c 0.144554,-0.08668 0.245227,-0.185987 0.223733,-0.220776 -0.06249,-0.101062 -0.649784,-0.07308 -0.871398,0.04149 -0.186695,0.09654 -0.421444,0.354453 -0.421444,0.463036 0,0.08739 0.807561,-0.127014 1.069109,-0.283784 z M 83.849119,45.73422 c 0.397116,-0.180939 0.264735,-0.619004 -0.187057,-0.619004 -0.168334,0 -0.196802,0.02798 -0.19598,0.192811 0.0017,0.258742 0.07203,0.508321 0.144147,0.508321 0.03231,0 0.139751,-0.03698 0.23889,-0.08209 z M 62.871902,36.401025 c -0.101203,-0.297387 -0.211189,-0.540708 -0.244415,-0.540708 -0.228093,0 -0.06408,0.769684 0.209946,0.985226 0.09687,0.07618 0.185652,0.129016 0.197295,0.117366 0.01165,-0.01165 -0.06161,-0.264489 -0.162826,-0.561884 z m -0.231386,-0.877878 c -8.83e-4,-0.102184 -0.01042,-0.104028 -0.06903,-0.01342 -0.08874,0.137306 -0.08874,0.230114 0,0.17528 0.03857,-0.02384 0.06965,-0.09669 0.06903,-0.16189 z m 0.491858,-0.227873 c 0,-0.07485 -0.03151,-0.136089 -0.07009,-0.136089 -0.03857,0 -0.07009,0.08077 -0.07009,0.179421 0,0.10176 0.03037,0.160663 0.07009,0.136088 0.03857,-0.02383 0.07009,-0.104575 0.07009,-0.17942 z m -0.14022,-1.468229 c 0,-0.03857 -0.0316,-0.07009 -0.07009,-0.07009 -0.03857,0 -0.07009,0.0316 -0.07009,0.07009 0,0.03857 0.03151,0.07009 0.07009,0.07009 0.03857,0 0.07009,-0.0316 0.07009,-0.07009 z m 0.490791,-1.121808 c 0,-0.03857 -0.04916,-0.07009 -0.109307,-0.07009 -0.06012,0 -0.0898,0.03151 -0.06594,0.07009 0.02383,0.03857 0.073,0.07009 0.109316,0.07009 0.03628,0 0.06594,-0.0316 0.06594,-0.07009 z M 62.755101,32.16596 c -0.102818,-0.05384 -0.224491,-0.07477 -0.270366,-0.04643 -0.05411,0.03346 -0.01032,0.08147 0.124357,0.136556 0.270234,0.110551 0.389057,0.03716 0.146009,-0.09015 z m 0.696913,-0.479589 c -0.188971,-0.142928 -0.368657,-0.141322 -0.249526,0.0027 0.04802,0.05782 0.154414,0.10416 0.236453,0.102933 0.146248,-0.0027 0.146495,-0.0044 0.01306,-0.105166 z m 0.451606,-0.28283 c 0,-0.07936 -0.146469,-0.310848 -0.195274,-0.308667 -0.02754,0.0017 -0.113068,0.04978 -0.190005,0.107928 -0.119996,0.09068 -0.124984,0.115133 -0.03504,0.171981 0.11394,0.07203 0.420331,0.09299 0.420331,0.02877 z m 5.363634,-1.923499 c -0.02383,-0.03857 -0.112458,-0.06965 -0.196943,-0.06903 -0.124895,8.83e-4 -0.133952,0.01377 -0.04846,0.06903 0.138127,0.08927 0.300572,0.08927 0.245394,0 z m 0.175281,-0.241254 c 0,-0.07397 0.134561,-0.105096 0.174574,-0.04034 0.02419,0.03919 -0.0053,0.07124 -0.06523,0.07124 -0.06012,0 -0.109316,-0.01395 -0.109316,-0.03089 z m -2.067258,-0.739213 c -0.111425,-0.116306 -0.244009,-0.211453 -0.294642,-0.211453 -0.05058,0 -0.09205,-0.02825 -0.09205,-0.06276 0,-0.07485 0.393003,0.0053 0.619375,0.126608 0.158757,0.085 0.184999,0.287421 0.04334,0.334567 -0.04043,0.0135 -0.164626,-0.07071 -0.276042,-0.186995 z"
       id="path3864"
       inkscape:connector-curvature="0"
       inkscape:export-filename="C:\inetpub\wwwroot\styles\single\headerback.png"
       inkscape:export-xdpi="72.559998"
       inkscape:export-ydpi="72.559998" />
    <text
       xml:space="preserve"
       style="font-size:19.63716125px;font-style:normal;font-variant:normal;font-weight:normal;font-stretch:normal;text-align:start;line-height:125%;letter-spacing:0px;word-spacing:0px;writing-mode:lr-tb;text-anchor:start;fill:#cccccc;fill-opacity:1;stroke:none;font-family:Segoe UI;-inkscape-font-specification:Segoe UI"
       x="140.82281"
       y="118.74599"
       id="text3906"
       sodipodi:linespacing="125%"
       inkscape:export-filename="C:\inetpub\wwwroot\styles\single\headerback.png"
       inkscape:export-xdpi="72.559998"
       inkscape:export-ydpi="72.559998"><tspan
         sodipodi:role="line"
         id="tspan3908"
         x="140.82281"
         y="118.74599"
         style="font-size:19.63716125px;font-style:normal;font-variant:normal;font-weight:normal;font-stretch:normal;text-align:start;line-height:125%;writing-mode:lr-tb;text-anchor:start;fill:#cccccc;fill-opacity:1;font-family:Segoe UI;-inkscape-font-specification:Segoe UI">my personal blog about photography, gadgets, and more</tspan></text>
  </g>
</svg>
