<?xml version="1.0" encoding="UTF-8" standalone="no"?>
<!-- Created with Inkscape (http://www.inkscape.org/) -->

<svg
   xmlns:dc="http://purl.org/dc/elements/1.1/"
   xmlns:cc="http://creativecommons.org/ns#"
   xmlns:rdf="http://www.w3.org/1999/02/22-rdf-syntax-ns#"
   xmlns:svg="http://www.w3.org/2000/svg"
   xmlns="http://www.w3.org/2000/svg"
   xmlns:xlink="http://www.w3.org/1999/xlink"
   xmlns:sodipodi="http://sodipodi.sourceforge.net/DTD/sodipodi-0.dtd"
   xmlns:inkscape="http://www.inkscape.org/namespaces/inkscape"
   width="744.09448819"
   height="1052.3622047"
   id="svg2"
   version="1.1"
   inkscape:version="0.48.2 r9819"
   sodipodi:docname="twitter.svg">
  <defs
     id="defs4">
    <linearGradient
       gradientUnits="userSpaceOnUse"
       gradientTransform="matrix(5.8597668,0,0,4.7612003,290.488,447.85448)"
       id="78690-_FFFFFF-_FFFFFF"
       x1="4.9649169"
       y1="27.206536"
       x2="4.9649169"
       y2="8.291537">
      <stop
         offset="0%"
         stop-color="#ffffff"
         style="-webkit-tap-highlight-color: rgba(0, 0, 0, 0);"
         id="stop14" />
      <stop
         offset="100%"
         stop-color="#ffffff"
         style="-webkit-tap-highlight-color: rgba(0, 0, 0, 0);"
         id="stop16" />
    </linearGradient>
    <linearGradient
       id="78590-_00adef-_00d2ff"
       x1="0"
       y1="1"
       x2="6.1230318e-017"
       y2="0">
      <stop
         offset="0%"
         stop-color="#00adef"
         style="-webkit-tap-highlight-color: rgba(0, 0, 0, 0);"
         id="stop9" />
      <stop
         offset="100%"
         stop-color="#00d2ff"
         style="-webkit-tap-highlight-color: rgba(0, 0, 0, 0);"
         id="stop11" />
    </linearGradient>
    <linearGradient
       gradientUnits="userSpaceOnUse"
       y2="0"
       x2="8.4497838e-015"
       y1="138"
       x1="0"
       id="linearGradient3019"
       xlink:href="#78590-_00adef-_00d2ff"
       inkscape:collect="always"
       gradientTransform="translate(306,463.36218)" />
  </defs>
  <sodipodi:namedview
     id="base"
     pagecolor="#ffffff"
     bordercolor="#666666"
     borderopacity="1.0"
     inkscape:pageopacity="0.0"
     inkscape:pageshadow="2"
     inkscape:zoom="2.8"
     inkscape:cx="372.32851"
     inkscape:cy="488.6813"
     inkscape:document-units="px"
     inkscape:current-layer="layer1"
     showgrid="false"
     inkscape:window-width="1920"
     inkscape:window-height="1017"
     inkscape:window-x="1912"
     inkscape:window-y="-8"
     inkscape:window-maximized="1" />
  <metadata
     id="metadata7">
    <rdf:RDF>
      <cc:Work
         rdf:about="">
        <dc:format>image/svg+xml</dc:format>
        <dc:type
           rdf:resource="http://purl.org/dc/dcmitype/StillImage" />
        <dc:title></dc:title>
      </cc:Work>
    </rdf:RDF>
  </metadata>
  <g
     inkscape:label="Layer 1"
     inkscape:groupmode="layer"
     id="layer1">
    <rect
       x="306"
       y="463.36218"
       width="138"
       height="138"
       r="17"
       rx="17"
       ry="17"
       style="fill:url(#linearGradient3019);fill-opacity:1;stroke:none;overflow:hidden"
       id="rect18"
       inkscape:export-filename="D:\www\wwwroot\styles\single\twitter.png"
       inkscape:export-xdpi="15.65"
       inkscape:export-ydpi="15.65" />
    <path
       inkscape:connector-curvature="0"
       d="m 430.41874,497.99651 c -4.07242,1.81172 -8.46176,3.03187 -13.06238,3.58119 4.70098,-2.8153 8.25048,-7.26803 9.99882,-12.58172 -4.39462,2.60403 -9.25934,4.50026 -14.44098,5.51441 -4.14637,-4.42104 -10.04637,-7.17824 -16.59605,-7.17824 -12.55531,0 -22.74429,10.1837 -22.74429,22.74429 0,1.78004 0.206,3.51781 0.59158,5.17108 -18.89899,-0.95076 -35.6535,-10.00411 -46.87246,-23.76372 -1.95963,3.35935 -3.07941,7.26275 -3.07941,11.43553 0,7.89131 4.01432,14.85299 10.11503,18.92541 -3.72909,-0.11621 -7.23634,-1.14091 -10.2999,-2.84172 0,0.0951 0,0.19015 0,0.27995 0,11.01825 7.83849,20.22478 18.24403,22.3006 -1.9068,0.52292 -3.91396,0.77646 -5.98979,0.77646 -1.4684,0 -2.88925,-0.12149 -4.27842,-0.40144 2.89454,9.03751 11.29292,15.60831 21.2442,15.79318 -7.78566,6.05317 -17.58906,9.72945 -28.24285,9.72945 -1.83814,0 -3.64458,-0.11093 -5.42461,-0.32749 10.06221,6.47045 22.01537,10.23652 34.8612,10.23652 41.82815,0 64.69393,-34.66048 64.69393,-64.7045 0,-0.98773 -0.0106,-1.9649 -0.0528,-2.94207 4.43688,-3.17977 8.28746,-7.18881 11.33517,-11.74717"
       style="fill:#ffffff;fill-opacity:1;stroke:none;overflow:hidden"
       id="path20"
       inkscape:export-xdpi="15.65"
       inkscape:export-ydpi="15.65"
       inkscape:export-filename="D:\www\wwwroot\styles\single\twitter.png" />
  </g>
</svg>
